<?xml version="1.0" encoding="UTF-8" standalone="no"?>
<svg xmlns="http://www.w3.org/2000/svg" viewBox="0 0 309.914025 239.835410" preserveAspectRatio="xMidYMid meet">
  <title>Aprentix - Zorro sobre libro</title>
  <g transform="translate(-27.085975,239.866036) scale(0.100000,-0.100000)"
fill="currentColor" stroke="none">
<path d="M1398 2388 c-27 -21 -51 -152 -50 -273 1 -183 61 -375 156 -499 35
-44 37 -50 25 -77 -14 -36 -41 -44 -127 -35 -182 18 -296 18 -362 1 -141 -37
-250 -117 -318 -235 -20 -35 -47 -64 -73 -80 -68 -41 -143 -128 -169 -195 -28
-73 -37 -177 -20 -253 11 -57 11 -57 -38 -172 -40 -94 -54 -116 -73 -120 -70
-15 -100 -81 -60 -131 19 -24 19 -24 433 -29 413 -5 413 -5 479 -36 85 -40
139 -90 175 -159 19 -35 35 -55 47 -55 24 0 71 100 87 185 12 65 12 65 61 65
35 0 58 -7 85 -25 94 -64 239 -63 336 0 38 25 38 25 681 25 637 0 645 0 671
21 18 14 26 30 26 50 0 45 -16 67 -59 80 -39 11 -40 14 -86 133 -47 121 -47
121 -139 208 -71 68 -87 88 -71 89 11 1 27 3 35 5 8 1 21 2 28 3 34 3 -1 49
-140 183 -153 148 -153 148 -264 148 -101 0 -113 2 -130 21 -14 16 -16 23 -6
26 21 8 113 84 119 99 3 7 -11 56 -31 107 -20 51 -36 97 -36 101 0 4 13 25 28
45 50 63 100 165 129 262 25 86 28 108 27 249 0 126 -4 165 -20 209 -27 77
-38 80 -117 41 -138 -68 -325 -250 -393 -383 -24 -47 -25 -48 -62 -41 -48 10
-153 10 -217 2 -50 -7 -50 -7 -105 79 -97 152 -280 316 -401 358 -50 18 -42
18 -61 3z m155 -110 c113 -76 256 -238 316 -356 17 -33 26 -42 39 -37 68 26
177 31 269 12 62 -13 62 -13 107 62 91 152 232 294 359 362 64 34 60 37 77
-55 25 -146 6 -335 -50 -475 -24 -61 -85 -161 -99 -161 -11 0 -141 185 -141
201 0 26 81 179 125 237 31 41 44 67 38 73 -15 15 -34 2 -76 -49 -47 -57 -137
-237 -137 -273 0 -15 12 -37 31 -55 37 -35 110 -146 127 -194 7 -19 25 -66 39
-103 14 -37 23 -70 20 -73 -3 -3 -32 -2 -64 3 -69 10 -173 3 -133 -9 14 -4 45
-8 69 -8 48 0 121 -19 121 -31 0 -9 -137 -96 -217 -137 -35 -18 -106 -48 -159
-67 -155 -56 -204 -49 -440 64 -105 51 -148 76 -229 134 -16 11 14 25 73 33
101 12 281 -54 360 -133 66 -66 113 -67 171 -5 19 20 34 40 33 43 0 4 4 6 11
5 7 0 49 18 94 42 46 23 91 42 100 43 13 0 11 3 -7 10 -37 15 -87 -3 -166 -61
-61 -44 -70 -48 -84 -35 -19 17 -115 21 -125 5 -11 -17 -33 -11 -66 20 -42 38
-105 67 -187 88 -54 13 -78 14 -141 5 -42 -6 -78 -10 -80 -8 -6 7 32 111 75
202 29 60 63 112 98 150 54 59 54 59 36 110 -35 100 -137 264 -182 292 -33 20
-32 -15 1 -56 41 -51 119 -189 133 -235 10 -35 9 -39 -36 -97 -26 -34 -58 -79
-70 -102 -24 -41 -24 -41 -54 3 -47 69 -80 140 -108 235 -37 128 -37 327 1
441 6 15 41 -1 128 -60z m-170 -815 c79 -4 117 -10 114 -17 -24 -65 -29 -86
-24 -100 17 -42 313 -203 472 -255 90 -29 90 -29 23 -60 -82 -37 -109 -39
-139 -6 -13 13 -30 25 -36 25 -24 0 -13 -38 18 -64 42 -36 93 -34 177 5 145
68 197 75 237 34 44 -43 28 -60 -61 -68 -64 -5 -115 -27 -204 -87 -31 -21 -77
-45 -104 -54 -105 -36 -206 19 -251 136 -12 31 -28 54 -38 56 -26 5 -21 -36
11 -102 29 -56 29 -56 -21 -56 -38 0 -56 6 -78 25 -32 26 -87 45 -132 45 -22
0 -27 4 -23 18 16 56 16 86 2 135 -19 65 -76 134 -137 164 -54 26 -134 40
-144 24 -11 -18 15 -41 45 -41 37 0 90 -23 129 -56 66 -56 88 -144 56 -234 -8
-23 -15 -46 -15 -51 0 -5 30 -9 66 -9 78 0 131 -21 140 -56 10 -39 -1 -55 -30
-45 -13 6 -71 15 -127 21 -57 6 -138 20 -179 30 -41 11 -118 29 -170 41 -123
27 -184 60 -217 116 -26 46 -30 48 -52 34 -12 -8 -12 -14 -1 -40 32 -79 113
-125 291 -165 111 -25 196 -50 250 -76 26 -12 27 -15 22 -74 -3 -33 -7 -62 -8
-64 -2 -2 -22 2 -45 8 -49 13 -119 4 -127 -16 -3 -8 4 -40 15 -71 12 -31 19
-60 17 -63 -3 -4 -18 -10 -35 -13 -16 -4 -48 -18 -71 -33 -39 -24 -45 -25 -83
-14 -136 40 -278 134 -343 227 -57 83 -76 148 -71 243 7 125 74 231 186 297
30 18 54 44 82 93 69 118 171 189 312 216 40 7 98 11 128 8 30 -2 108 -7 173
-11z m1132 -268 c31 -30 33 -75 4 -101 -11 -10 -67 -30 -124 -44 -103 -25
-103 -25 -141 9 -22 18 -34 35 -29 37 6 2 64 31 130 63 66 33 124 60 128 60 4
1 19 -10 32 -24z m378 -153 c129 -127 129 -127 40 -129 -260 -6 -546 -49 -693
-103 -132 -49 -247 -114 -344 -197 -47 -39 -53 -40 -50 -10 1 12 3 55 3 95 1
63 3 72 19 72 11 0 46 18 79 39 117 75 156 93 228 103 58 7 75 14 97 38 22 23
48 35 127 55 56 14 112 30 126 37 32 14 65 67 65 102 0 26 0 26 88 26 87 0 87
0 215 -128z m121 -251 c39 -38 68 -72 66 -75 -3 -2 -97 11 -210 31 -177 30
-230 35 -387 36 -101 1 -183 3 -183 4 0 1 42 11 93 23 138 33 267 48 416 49
133 1 133 1 205 -68z m-1330 -6 c13 -9 43 -19 67 -23 44 -8 44 -8 47 -95 1
-48 0 -87 -4 -87 -3 0 -21 13 -40 29 -42 38 -136 92 -196 116 -27 10 -48 20
-48 24 0 3 3 16 6 29 6 20 12 22 76 22 45 0 77 -5 92 -15z m1039 -59 c227 -31
412 -67 425 -84 21 -28 15 -44 -15 -38 -16 3 -77 12 -138 20 -60 8 -180 25
-265 37 -332 46 -584 5 -777 -128 -47 -32 -53 -34 -72 -21 -21 15 -21 15 2 35
44 41 151 103 228 133 180 69 345 82 612 46z m-1297 -6 c102 -27 246 -98 308
-152 43 -39 47 -45 33 -57 -14 -11 -26 -7 -84 31 -76 50 -163 89 -238 107 -33
8 -65 26 -94 52 -52 47 -43 49 75 19z m-92 -65 c31 -20 88 -107 112 -170 25
-67 26 -261 0 -317 -9 -21 -20 -38 -24 -38 -4 0 -18 16 -31 36 -60 88 -134
128 -351 191 -26 8 19 32 73 39 27 4 51 12 53 19 3 7 -4 36 -15 66 -12 30 -21
60 -21 67 0 16 30 15 106 -5 35 -9 66 -14 69 -11 3 3 1 27 -5 53 -10 42 -7 85
6 85 3 0 15 -7 28 -15z m1347 -30 c63 -8 139 -19 169 -24 30 -5 117 -17 193
-27 137 -17 137 -17 157 -62 11 -24 20 -50 20 -58 0 -10 -119 -12 -637 -7
-351 3 -640 7 -642 9 -10 10 37 46 108 83 176 91 380 119 632 86z m-2136 -54
c22 -26 59 -63 83 -82 42 -34 42 -34 -74 -37 -64 -1 -118 -1 -121 1 -5 5 60
167 67 167 3 0 23 -22 45 -49z m969 9 c55 -21 133 -62 175 -92 39 -28 16 -38
-90 -38 -88 0 -99 2 -99 18 0 9 -11 41 -25 70 -14 30 -25 56 -25 58 0 7 7 5
64 -16z m346 -112 c70 -48 62 -84 -20 -95 -42 -6 -110 18 -110 38 0 9 80 79
90 79 4 0 22 -10 40 -22z m-1035 -98 c60 -28 60 -28 -217 -29 -176 -1 -279 3
-283 9 -3 6 -3 19 0 30 6 19 15 20 223 19 217 -1 217 -1 277 -29z m873 9 c33
-53 161 -67 225 -24 20 14 37 30 37 35 0 7 246 9 682 8 656 -3 683 -4 686 -22
2 -10 -1 -23 -6 -28 -7 -7 -221 -10 -654 -9 -555 1 -646 -1 -668 -14 -94 -56
-132 -68 -196 -62 -68 7 -92 16 -137 53 -23 19 -40 24 -88 24 -59 0 -59 0 -59
30 0 30 0 30 83 30 72 0 84 -2 95 -21z"/>
<path d="M1756 1539 c-28 -22 -35 -59 -11 -59 9 0 29 10 45 22 38 28 86 16
115 -29 11 -18 28 -32 38 -33 30 0 19 40 -22 81 -35 35 -44 39 -88 39 -36 0
-58 -6 -77 -21z"/>
<path d="M2245 1550 c-29 -12 -63 -51 -70 -82 -6 -24 -4 -28 14 -28 12 0 21 6
21 14 0 20 57 66 82 66 11 0 36 -10 55 -21 27 -17 37 -19 46 -10 9 10 4 19
-21 42 -33 30 -83 38 -127 19z"/>
</g>
</svg>
