<?xml version="1.0" encoding="UTF-8"?>
<!-- Silueta sólida del logo. La silueta ES el icono. Máxima legibilidad
     a 24-48 px (badge de notificación, mask-icon Safari). -->
<svg xmlns="http://www.w3.org/2000/svg" viewBox="0 0 512 512" width="512" height="512">
  <g fill="#4E6B1F" stroke="#4E6B1F" stroke-width="220" stroke-linejoin="round" stroke-linecap="round" fill-rule="evenodd" paint-order="stroke fill">
    <g transform="translate(88.8761,56.0000) scale(0.217542)">
      <g
     transform="matrix(0.1,0,0,-0.1,-111,1869.9686)"
     id="g69">
    <path
       d="m 6543,18674 c -53,-31 -78,-74 -141,-239 -159,-420 -301,-1129 -342,-1705 -13,-185 -13,-563 0,-750 53,-774 252,-1544 606,-2351 158,-359 376,-770 564,-1065 l 77,-121 -132,-389 c -320,-940 -425,-1205 -574,-1453 -28,-47 -56,-101 -62,-121 -14,-48 2,-108 38,-142 97,-90 1007,-694 1421,-943 189,-113 177,-83 108,-260 -86,-220 -236,-492 -374,-678 -209,-281 -433,-504 -906,-900 -450,-377 -636,-549 -822,-759 -283,-321 -489,-612 -673,-954 l -81,-151 -117,34 c -583,168 -1295,169 -1880,3 -537,-151 -980,-404 -1362,-775 -496,-482 -781,-1162 -781,-1865 0,-285 48,-537 155,-815 143,-373 347,-663 664,-946 256,-229 539,-409 881,-559 126,-56 557,-199 750,-249 352,-92 772,-160 1185,-191 231,-18 716,-23 950,-11 569,31 941,88 1690,260 545,125 754,159 1015,168 273,8 556,-29 771,-102 40,-14 95,-25 122,-25 42,0 54,5 82,33 19,19 37,47 41,62 8,33 -18,211 -45,310 -10,36 -15,65 -11,65 12,0 573,-165 725,-213 77,-24 282,-86 455,-137 256,-76 321,-99 345,-121 17,-15 53,-38 80,-51 48,-22 61,-23 280,-23 229,0 230,0 287,27 32,15 70,39 85,54 28,28 41,32 513,170 85,25 241,72 345,104 167,51 541,162 1310,387 368,107 578,174 611,194 18,11 37,32 43,47 12,29 42,289 35,306 -2,6 29,28 68,48 190,98 328,273 389,493 17,61 22,106 22,190 -1,78 5,132 18,185 34,130 44,249 32,349 -27,214 -130,387 -293,496 -51,34 -70,52 -70,68 0,12 11,117 25,232 43,359 114,948 146,1215 35,295 35,367 -1,406 -31,33 -72,54 -103,54 -19,0 -227,-62 -291,-86 -9,-3 -18,26 -31,103 -26,158 -50,193 -130,193 -23,0 -187,-38 -366,-86 -430,-113 -609,-158 -614,-153 -2,3 0,49 5,104 4,55 11,210 15,345 l 6,245 69,125 c 172,314 287,657 344,1030 39,256 49,432 43,735 -6,273 -20,438 -59,665 -11,69 -21,134 -22,145 -1,15 49,47 239,153 499,278 972,569 1572,968 260,173 420,286 435,306 17,25 23,46 23,89 0,49 -5,64 -36,110 -156,230 -351,726 -675,1720 l -47,145 75,115 c 134,205 199,320 348,614 545,1079 813,2031 860,3051 31,686 -92,1536 -322,2231 -104,316 -186,333 -613,124 -472,-232 -961,-591 -1424,-1046 -252,-247 -450,-463 -644,-704 -370,-458 -682,-935 -908,-1386 -61,-121 -112,-221 -114,-223 -1,-2 -48,11 -104,27 -182,54 -417,98 -651,123 -159,16 -644,16 -810,0 -250,-25 -547,-83 -753,-146 l -47,-15 -79,164 c -197,410 -474,856 -794,1280 -341,450 -800,934 -1208,1272 -418,346 -912,655 -1222,762 -112,39 -176,41 -234,5 z m 272,-331 c 229,-100 637,-365 950,-617 317,-256 710,-651 1014,-1020 451,-547 830,-1152 1068,-1704 41,-94 77,-132 128,-132 19,0 108,22 197,49 200,60 350,94 533,120 572,81 1145,43 1645,-111 167,-51 204,-56 246,-33 35,19 36,21 108,184 126,286 352,676 598,1033 515,750 1218,1470 1843,1890 235,157 654,388 706,388 18,0 25,-20 104,-305 124,-444 196,-904 226,-1430 23,-424 -25,-1005 -121,-1445 -183,-839 -605,-1851 -1055,-2530 -120,-182 -125,-191 -125,-224 0,-22 297,-922 400,-1211 67,-188 174,-446 252,-603 44,-90 78,-165 76,-166 -2,-1 -140,-92 -308,-203 -869,-572 -1341,-849 -2295,-1348 -187,-98 -437,-231 -557,-296 -419,-229 -643,-331 -725,-331 -66,0 -150,23 -226,61 -78,40 -122,87 -132,141 l -6,36 72,28 c 197,77 365,220 442,376 30,61 32,72 32,170 0,95 -3,110 -27,156 -67,127 -208,194 -469,225 -185,21 -433,-4 -581,-60 -148,-56 -238,-183 -238,-335 0,-118 52,-227 160,-335 75,-75 215,-164 310,-198 88,-31 96,-43 66,-102 -43,-82 -224,-171 -349,-171 -81,0 -372,130 -797,357 -135,71 -317,167 -405,213 -1182,612 -1729,938 -2662,1586 -23,16 -42,34 -43,39 0,6 12,30 26,55 46,79 165,341 221,485 148,380 493,1399 493,1455 0,31 -20,68 -114,211 -157,240 -256,416 -412,733 -155,317 -223,473 -332,767 -130,351 -204,595 -277,919 -183,820 -187,1569 -14,2435 59,298 181,754 220,827 12,22 20,20 134,-29 z M 8701,8997 c 145,-79 350,-188 454,-242 105,-54 318,-166 475,-248 684,-359 801,-414 1038,-491 433,-140 847,-124 1290,51 170,66 283,121 500,242 275,152 944,503 949,497 7,-7 40,-245 54,-397 16,-171 17,-620 1,-767 -50,-461 -155,-789 -388,-1223 l -47,-86 -9,-189 c -14,-314 -31,-596 -37,-643 l -6,-44 -70,-19 c -421,-113 -852,-247 -1053,-327 -225,-90 -434,-209 -546,-312 l -55,-50 -60,49 c -170,142 -469,287 -866,420 -280,94 -733,228 -1100,326 -93,25 -338,93 -543,151 -206,58 -389,105 -407,105 -56,0 -83,-34 -145,-181 -39,-94 -60,-133 -71,-131 -7,2 -71,22 -140,44 -113,35 -130,38 -166,29 -50,-14 -90,-52 -103,-99 -10,-37 -3,-138 25,-347 20,-147 143,-1267 151,-1376 l 7,-86 -72,-38 c -144,-76 -216,-169 -285,-368 -5,-16 -12,-14 -63,21 -333,223 -742,422 -1543,748 -168,68 -384,157 -480,197 l -175,74 -3,84 c -3,99 19,296 53,464 109,541 418,1144 844,1650 213,252 393,429 713,697 100,84 245,206 322,271 437,368 683,631 914,976 108,161 248,432 318,614 21,53 43,97 49,97 6,0 130,-64 276,-143 z m 2595,-688 c 16,-17 51,-46 77,-64 44,-30 46,-33 25,-39 -30,-8 -247,-8 -287,0 l -32,7 38,25 c 21,14 58,43 83,64 25,21 50,38 56,38 5,0 23,-14 40,-31 z M 4555,5545 c 66,-9 158,-23 205,-31 86,-16 357,-81 370,-89 4,-3 -12,-62 -36,-131 -87,-249 -151,-549 -161,-761 -3,-68 -7,-123 -8,-123 -1,0 -81,36 -177,79 -214,97 -421,201 -548,277 -115,69 -165,79 -220,42 -63,-42 -87,-125 -55,-188 8,-15 41,-44 72,-63 112,-67 374,-209 461,-248 264,-122 674,-302 867,-379 252,-101 339,-139 334,-144 -2,-2 -49,-21 -104,-41 -198,-74 -254,-117 -242,-190 3,-17 53,-123 113,-236 59,-112 135,-264 170,-336 l 63,-133 -42,-10 c -228,-59 -750,-269 -985,-396 -86,-47 -112,-77 -112,-132 0,-37 23,-71 156,-230 226,-270 383,-432 549,-567 33,-27 60,-52 60,-56 0,-4 -59,-47 -132,-95 -299,-202 -531,-403 -554,-481 -16,-57 6,-115 77,-199 30,-35 54,-65 54,-67 0,-2 -10,-3 -22,-1 -13,2 -93,11 -178,20 -651,68 -1355,258 -1802,485 -664,339 -1118,869 -1273,1489 -103,412 -65,911 101,1330 131,327 285,560 539,815 245,246 491,409 840,558 353,151 618,213 1065,251 94,8 440,-4 555,-19 z m 3934,-46 c 64,-17 226,-61 361,-99 135,-38 403,-112 595,-165 382,-106 616,-177 855,-262 470,-167 633,-253 797,-420 89,-91 108,-106 143,-110 59,-8 96,12 140,76 177,258 578,422 1860,760 639,168 902,233 910,225 5,-5 10,-31 12,-57 l 3,-48 -985,-331 c -542,-181 -1154,-386 -1360,-454 -206,-69 -380,-130 -388,-136 -7,-7 -24,-33 -37,-59 -27,-52 -44,-59 -144,-59 -106,0 -125,7 -147,53 -10,23 -30,49 -44,59 -14,10 -637,223 -1385,473 -747,251 -1361,458 -1363,460 -7,7 42,125 52,125 5,0 61,-14 125,-31 z m 182,-495 c 404,-135 1054,-353 1444,-483 391,-131 721,-243 733,-250 l 22,-12 V 2595 c 0,-915 -4,-1666 -8,-1668 -4,-2 -236,65 -517,149 -280,85 -647,195 -814,244 -168,50 -310,95 -317,101 -6,5 -33,46 -59,92 -75,130 -245,381 -344,507 -87,112 -90,116 -83,155 12,74 7,228 -11,295 -35,132 -110,261 -221,379 -28,29 -113,102 -188,162 -115,92 -138,114 -143,142 -3,17 -23,192 -45,387 -22,195 -60,533 -85,750 -108,938 -110,960 -102,960 2,0 334,-111 738,-246 z m 5885,199 c -3,-27 -31,-257 -61,-513 -31,-256 -71,-586 -90,-735 -19,-148 -50,-411 -70,-584 -19,-172 -38,-317 -41,-323 -3,-5 -57,-42 -119,-83 -173,-112 -232,-175 -279,-295 -10,-25 -28,-58 -40,-75 -46,-60 -60,-98 -60,-167 -1,-60 2,-71 32,-113 33,-46 33,-49 22,-97 -40,-163 97,-333 303,-379 l 58,-12 -6,-41 c -15,-102 -7,-93 -113,-125 -175,-54 -691,-208 -1040,-311 -188,-55 -575,-171 -860,-257 -284,-86 -529,-158 -544,-160 l -27,-5 3,1673 3,1673 1269,424 c 698,233 1355,452 1459,487 105,35 194,64 198,64 5,1 6,-20 3,-46 z m -3178,-2745 -3,-1643 h -130 -130 l -3,1643 -2,1642 h 135 135 z M 6170,3589 c 194,-82 570,-261 731,-348 271,-147 610,-371 870,-576 502,-396 933,-897 1184,-1378 90,-171 158,-352 126,-333 -18,11 -204,46 -324,61 -140,17 -434,20 -575,5 C 7975,997 7730,950 7253,841 6566,683 6047,611 5470,595 5120,585 5088,594 4917,759 l -81,78 96,79 c 115,95 429,321 553,398 107,67 135,96 135,139 0,51 -28,82 -142,160 -186,126 -366,298 -581,556 l -87,104 37,21 c 200,112 637,278 941,357 93,24 135,56 146,111 6,29 -13,73 -171,388 -98,195 -179,358 -181,361 -8,18 351,135 423,138 12,1 86,-27 165,-60 z m 1713,-291 c 9,-150 26,-199 100,-276 34,-36 125,-116 202,-178 182,-146 187,-151 229,-207 37,-50 76,-157 76,-210 0,-28 -7,-23 -142,109 -162,158 -334,304 -520,443 -72,53 -128,101 -128,111 0,31 31,136 56,187 22,47 92,123 113,123 4,0 11,-46 14,-102 z m 6804,-12 c 62,-90 77,-147 77,-286 0,-122 -1,-129 -44,-253 -43,-126 -43,-128 -27,-163 63,-131 -73,-393 -252,-484 -112,-56 -224,-63 -293,-16 -37,24 -61,66 -52,89 3,8 31,32 62,53 31,20 107,87 167,147 104,103 114,117 55,76 -49,-33 -148,-79 -171,-79 -13,0 -52,18 -86,40 -69,45 -71,51 -20,109 16,19 42,62 57,96 23,52 42,73 116,136 135,112 257,238 283,291 16,34 27,85 37,180 7,73 14,135 14,137 0,13 50,-34 77,-73 z"
       id="path59" />
    <path
       d="m 7313,16966 c -21,-26 -64,-201 -89,-361 -22,-137 -30,-533 -15,-721 23,-291 70,-560 146,-834 135,-486 275,-851 511,-1327 186,-376 212,-393 330,-216 170,256 455,552 718,748 74,55 81,63 84,98 6,69 -142,498 -275,802 -205,467 -518,978 -839,1366 -102,123 -376,396 -438,437 -61,39 -107,42 -133,8 z m 184,-213 c 98,-89 259,-269 391,-439 104,-133 322,-455 432,-639 91,-152 259,-493 345,-700 74,-177 208,-572 201,-591 -2,-6 -53,-49 -113,-95 -191,-148 -415,-379 -566,-582 -37,-51 -76,-103 -86,-117 l -19,-25 -109,220 c -331,670 -544,1324 -625,1925 -19,139 -22,211 -23,460 0,185 5,325 13,375 21,140 54,285 65,285 5,0 48,-35 94,-77 z"
       id="path61" />
    <path
       d="m 15059,16948 c -71,-48 -283,-257 -394,-389 -397,-474 -730,-1036 -960,-1624 -87,-223 -185,-525 -185,-572 0,-39 2,-42 143,-153 237,-189 459,-425 637,-675 86,-122 99,-135 131,-135 40,0 71,33 128,136 295,540 563,1260 676,1818 110,548 114,1048 9,1488 -21,86 -31,112 -51,128 -37,29 -63,25 -134,-22 z m 90,-238 c 39,-198 45,-279 45,-555 0,-279 -7,-359 -50,-620 -70,-423 -227,-920 -459,-1455 -83,-191 -244,-512 -255,-508 -4,2 -43,50 -85,108 -176,237 -353,423 -565,590 -71,57 -130,110 -130,117 0,26 127,397 191,558 73,185 276,598 376,765 144,241 345,524 531,750 128,155 362,387 372,369 5,-8 17,-61 29,-119 z"
       id="path63" />
    <path
       d="m 9137,11950 c -154,-39 -296,-120 -411,-235 -95,-95 -158,-187 -163,-238 -8,-84 59,-157 144,-157 61,0 93,19 140,87 49,70 140,157 208,200 88,56 166,76 290,77 172,1 303,-47 450,-165 126,-102 212,-222 274,-383 36,-93 60,-122 114,-137 71,-19 141,12 171,75 24,51 20,89 -23,191 -143,342 -391,574 -716,671 -77,23 -113,27 -245,30 -129,3 -168,0 -233,-16 z"
       id="path65" />
    <path
       d="m 12935,11946 c -206,-54 -353,-140 -505,-295 -106,-109 -180,-220 -242,-363 -49,-113 -57,-162 -32,-213 24,-50 66,-75 131,-75 73,0 100,26 148,141 95,230 271,413 475,496 175,70 342,68 495,-8 78,-38 179,-128 240,-214 53,-73 98,-100 157,-92 83,11 131,71 125,154 -3,44 -11,62 -59,125 -142,188 -325,311 -527,354 -107,22 -298,18 -406,-10 z"
       id="path67" />
  </g>
    </g>
  </g>
</svg>
